# xmcd
#
# Track frame offsets: 
#        150
#        10357
#        29399
#        50699
#        60862
#        74901
#        97413
#        110690
#        121843
#        145676
#
# Disc length: 2162 seconds
#
# Revision: 0
# Processed by: cddbd v1.5.2PL0 Copyright (c) Steve Scherf et al.
# Submitted via: ExactAudioCopyFreeDBPlugin 1.0
#
DISCID=9308700a
DTITLE=Memphis Slim - Legend Of The Blues - Vol. 1
DYEAR=1967
DGENRE=Blues
TTITLE0=Little Lonely Girl
TTITLE1=Gone Again
TTITLE2=Forty Years Or More
TTITLE3=All By Myself
TTITLE4=Broadway Boogie
TTITLE5=Lend Me Your Love
TTITLE6=Ramble This Highway
TTITLE7=I Feel Like Ballin' A Jack
TTITLE8=Rock Me Woman
TTITLE9=This Little Woman
EXTD=
EXTT0=
EXTT1=
EXTT2=
EXTT3=
EXTT4=
EXTT5=
EXTT6=
EXTT7=
EXTT8=
EXTT9=
PLAYORDER=
